<svg xmlns="http://www.w3.org/2000/svg" viewBox="0 0 64 64">
  <g stroke="#c9688f" stroke-width="2.4" stroke-linecap="round" stroke-linejoin="round">
    <path d="M32 30 C25 20 25 8 32 2 C39 8 39 20 32 30" fill="#f5aecb" fill-opacity="0.9" />
    <path d="M32 30 C25 20 25 8 32 2 C39 8 39 20 32 30" fill="#f5aecb" fill-opacity="0.9" transform="rotate(72 32 32)" />
    <path d="M32 30 C25 20 25 8 32 2 C39 8 39 20 32 30" fill="#f5aecb" fill-opacity="0.9" transform="rotate(144 32 32)" />
    <path d="M32 30 C25 20 25 8 32 2 C39 8 39 20 32 30" fill="#f5aecb" fill-opacity="0.9" transform="rotate(216 32 32)" />
    <path d="M32 30 C25 20 25 8 32 2 C39 8 39 20 32 30" fill="#f5aecb" fill-opacity="0.9" transform="rotate(288 32 32)" />
  </g>
  <circle cx="32" cy="32" r="8" fill="#f2cd7d" stroke="#d9ab4f" stroke-width="2" />
</svg>
